<?xml version="1.0" encoding="utf-8"?>
<!-- Generator: Adobe Illustrator 22.0.1, SVG Export Plug-In . SVG Version: 6.00 Build 0)  -->
<svg version="1.1" id="Layer_1" xmlns="http://www.w3.org/2000/svg" xmlns:xlink="http://www.w3.org/1999/xlink" x="0px" y="0px"
	 viewBox="0 0 273.3 187.1" style="enable-background:new 0 0 273.3 187.1;" xml:space="preserve">
<style type="text/css">
	.st0{fill:url(#SVGID_1_);}
	.st1{fill:#1D1D1B;}
</style>
<linearGradient id="SVGID_1_" gradientUnits="userSpaceOnUse" x1="132.1382" y1="155.6603" x2="145.5212" y2="2.6912">
	<stop  offset="0.1929" style="stop-color:#681134"/>
	<stop  offset="0.2199" style="stop-color:#6D1135"/>
	<stop  offset="0.2505" style="stop-color:#7A1039"/>
	<stop  offset="0.2829" style="stop-color:#910F3F"/>
	<stop  offset="0.3162" style="stop-color:#B10D47"/>
	<stop  offset="0.3481" style="stop-color:#D60B51"/>
	<stop  offset="0.3621" style="stop-color:#D7134E"/>
	<stop  offset="0.3838" style="stop-color:#DB2946"/>
	<stop  offset="0.4106" style="stop-color:#E24C3A"/>
	<stop  offset="0.4412" style="stop-color:#EB7E28"/>
	<stop  offset="0.4724" style="stop-color:#F5B814"/>
	<stop  offset="0.4814" style="stop-color:#F6BC2A"/>
	<stop  offset="0.4999" style="stop-color:#F9C763"/>
	<stop  offset="0.5182" style="stop-color:#FCD3A0"/>
	<stop  offset="0.5249" style="stop-color:#FBCF9A"/>
	<stop  offset="0.5741" style="stop-color:#F6B36E"/>
	<stop  offset="0.6184" style="stop-color:#F3A04E"/>
	<stop  offset="0.6556" style="stop-color:#F1933B"/>
	<stop  offset="0.6812" style="stop-color:#F08F34"/>
	<stop  offset="0.7212" style="stop-color:#E45341"/>
	<stop  offset="0.7714" style="stop-color:#D60B51"/>
	<stop  offset="0.8845" style="stop-color:#681134"/>
	<stop  offset="1" style="stop-color:#45051E"/>
</linearGradient>
<path class="st0" d="M38.1,40.2H21.9V24h16.2V40.2z M5.3,144.6h14.5v-14.5H5.3V144.6z M65.3,3.8H42.7v22.6h22.6V3.8z M27.8,132.7
	h22.7V110H27.8V132.7z M201.1,7.8c-13.8,0-26.7,4.2-37.4,11.4c-13.8,9.5-20.9,21.7-24.3,29.4c-1,2.4-1.9,4.9-2.7,7.5H92.9v5.4h6.5
	v8.8l-2.7,0v0h-9.3v9.4h5.5v7.3h37.7c-5.7,10.1-16.6,17-29.1,17C83,104.1,68,89.1,68,70.6s15-33.5,33.5-33.5c7.7,0,14.8,2.6,20.5,7
	c0,0,8.1-16.9,18.6-27.9c0,0-15.4-12.6-39.1-12.6c-4.8,0-9.4,0.6-13.9,1.5v4v8.2H71.8l0,16.8H50.4V45H39.6
	c-3.3,7.9-5.1,16.6-5.1,25.6c0,10.4,2.4,20.2,6.6,29h4.7h6.7h7.8h3h7v11.9h-8.1v13.3c11,8,24.5,12.7,39.2,12.7
	c18.6,0,34.7-7.6,46.2-19.8l0-0.1c0,0,0.1-0.1,0.3-0.3c0.3-0.3,18.8-18.5,19.7-42.7c0.7-18.5,15-33.5,33.5-33.5
	c18.5,0,33.5,15,33.5,33.5s-15,33.5-33.5,33.5c-8.2,0-15.7-3-21.5-7.9c-3,7.2-8.7,18.2-18.2,28.3c11.1,8.2,24.8,13.1,39.7,13.1
	c37,0,66.9-30,66.9-66.9S238,7.8,201.1,7.8z"/>
<g>
	<path class="st1" d="M5.8,170.5L5.8,170.5c0-8.4,6.4-14.9,15.1-14.9c5.8,0,9.6,2.4,12.1,6l-6,4.6c-1.6-2-3.5-3.3-6.2-3.3
		c-4,0-6.8,3.4-6.8,7.5v0.1c0,4.3,2.8,7.6,6.8,7.6c3,0,4.7-1.4,6.4-3.5l6,4.2c-2.7,3.7-6.3,6.4-12.6,6.4
		C12.3,185.2,5.8,179,5.8,170.5z"/>
	<path class="st1" d="M35.1,170.5L35.1,170.5c0-8.3,6.6-14.9,15.4-14.9s15.3,6.6,15.3,14.8v0.1c0,8.2-6.6,14.9-15.4,14.9
		S35.1,178.7,35.1,170.5z M57.7,170.5L57.7,170.5c0-4.2-3-7.8-7.3-7.8c-4.3,0-7.2,3.5-7.2,7.6v0.1c0,4.1,3,7.7,7.3,7.7
		C54.8,178.1,57.7,174.6,57.7,170.5z"/>
	<path class="st1" d="M69.4,156.1h7.4l11.8,15.1v-15.1h7.8v28.6h-6.9L77.3,169v15.7h-7.8V156.1z"/>
	<path class="st1" d="M98.9,180.4l4.4-5.3c2.8,2.2,6,3.4,9.3,3.4c2.1,0,3.3-0.7,3.3-2v-0.1c0-1.2-0.9-1.8-4.8-2.7
		c-6.1-1.4-10.8-3.1-10.8-9v-0.1c0-5.3,4.2-9.1,11.1-9.1c4.9,0,8.7,1.3,11.8,3.8l-4,5.6c-2.6-1.8-5.5-2.8-8-2.8
		c-1.9,0-2.9,0.8-2.9,1.8v0.1c0,1.3,1,1.9,4.9,2.8c6.6,1.4,10.6,3.5,10.6,8.9v0.1c0,5.8-4.6,9.3-11.5,9.3
		C107.3,185.1,102.4,183.6,98.9,180.4z"/>
	<path class="st1" d="M133.8,163h-8.6v-6.9h25.1v6.9h-8.6v21.6h-7.9V163z"/>
	<path class="st1" d="M153.7,156.1h13.5c4.4,0,7.4,1.1,9.3,3.1c1.7,1.6,2.5,3.8,2.5,6.7v0.1c0,4.4-2.3,7.3-5.9,8.8l6.8,10h-9.1
		l-5.8-8.7H165h-3.4v8.7h-7.9V156.1z M166.9,169.8c2.7,0,4.2-1.3,4.2-3.4v-0.1c0-2.2-1.6-3.4-4.3-3.4h-5.2v6.9H166.9z"/>
	<path class="st1" d="M183.1,172.1v-16h8V172c0,4.1,2.1,6.1,5.3,6.1c3.2,0,5.3-1.9,5.3-5.9v-16.1h8v15.8c0,9.2-5.3,13.3-13.4,13.3
		S183.1,181.1,183.1,172.1z"/>
	<path class="st1" d="M213.3,170.5L213.3,170.5c0-8.4,6.4-14.9,15.1-14.9c5.8,0,9.6,2.4,12.1,6l-6,4.6c-1.6-2-3.5-3.3-6.2-3.3
		c-4,0-6.8,3.4-6.8,7.5v0.1c0,4.3,2.8,7.6,6.8,7.6c3,0,4.7-1.4,6.4-3.5l6,4.2c-2.7,3.7-6.3,6.4-12.6,6.4
		C219.9,185.2,213.3,179,213.3,170.5z"/>
	<path class="st1" d="M251.5,163h-8.6v-6.9H268v6.9h-8.6v21.6h-7.9V163z"/>
</g>
</svg>
